<svg width="91" height="83" viewBox="0 0 91 83" fill="none" xmlns="http://www.w3.org/2000/svg">
<path d="M90.0523 41.2772C90.0523 63.8498 69.8934 82.1485 45.0262 82.1485C20.1589 82.1485 0 63.8498 0 41.2772C0 18.7046 20.1589 0.405945 45.0262 0.405945C69.8934 0.405945 90.0523 18.7046 90.0523 41.2772Z" fill="#8b5cf6"/>
<path d="M60.0185 19.7188C59.2893 20.3021 58.6018 20.9167 57.956 21.5625C57.3102 22.1875 56.6956 22.8542 56.1123 23.5625C58.0706 23.9375 59.9248 24.5417 61.6748 25.375C63.4248 26.1875 64.9456 27.2188 66.2373 28.4688C67.5289 29.7188 68.5498 31.1771 69.2998 32.8438C70.0706 34.4896 70.456 36.3229 70.456 38.3438C70.456 40.6771 70.0498 42.7917 69.2373 44.6875C68.4456 46.5625 67.3518 48.2292 65.956 49.6875C64.5602 51.125 62.9143 52.375 61.0185 53.4375C59.1227 54.4792 57.081 55.3333 54.8935 56C56.9768 56.6042 59.1331 57.125 61.3623 57.5625C63.6123 58.0208 65.831 58.3125 68.0185 58.4375C67.9768 58.4375 67.9143 58.4792 67.831 58.5625C67.5393 58.6875 66.9873 58.9583 66.1748 59.375C65.3623 59.7917 64.4456 60.3854 63.4248 61.1562C62.4039 61.9479 61.3518 62.9479 60.2685 64.1562C59.206 65.3646 58.2893 66.8229 57.5185 68.5312C56.2268 67.7396 54.9352 66.7917 53.6435 65.6875C52.5393 64.75 51.3206 63.6042 49.9873 62.25C48.6539 60.8958 47.3935 59.3438 46.206 57.5938C45.3935 57.6979 44.5914 57.7604 43.7998 57.7812C43.0289 57.8229 42.2477 57.8438 41.456 57.8438C40.6018 57.8438 39.7164 57.8229 38.7998 57.7812C37.8831 57.7604 36.9873 57.7188 36.1123 57.6562C35.2581 57.5938 34.456 57.5 33.706 57.375C32.9768 57.2708 32.3623 57.1354 31.8623 56.9688C32.4456 56.4896 32.9977 56.0104 33.5185 55.5312C34.0602 55.0312 34.5498 54.5312 34.9873 54.0312C33.0081 53.6562 31.1435 53.0938 29.3935 52.3438C27.6643 51.5938 26.1435 50.6354 24.831 49.4688C23.5185 48.2812 22.4768 46.8958 21.706 45.3125C20.956 43.7083 20.581 41.875 20.581 39.8125C20.581 37.3958 21.0185 35.2188 21.8935 33.2812C22.7893 31.3229 24.0081 29.5833 25.5498 28.0625C27.0914 26.5417 28.9039 25.2396 30.9873 24.1562C33.0706 23.0729 35.3102 22.1771 37.706 21.4688C40.1018 20.7604 42.5914 20.2396 45.1748 19.9062C47.7789 19.5729 50.3623 19.4062 52.9248 19.4062C53.9873 19.4062 55.0914 19.4375 56.2373 19.5C57.3831 19.5417 58.6435 19.6146 60.0185 19.7188ZM56.8935 36.1562C56.8935 34.8646 56.5393 33.5938 55.831 32.3438C55.1227 31.0938 54.0914 30.0208 52.7373 29.125C52.5081 29.6667 52.2893 30.2292 52.081 30.8125C51.8727 31.375 51.6852 31.9583 51.5185 32.5625C50.0602 32.1458 48.831 31.8646 47.831 31.7188C46.8518 31.5729 46.0289 31.5 45.3623 31.5C44.0498 31.5 42.7268 31.7188 41.3935 32.1562C40.0602 32.5938 38.8623 33.2292 37.7998 34.0625C36.7373 34.875 35.8623 35.875 35.1748 37.0625C34.5081 38.2292 34.1748 39.5521 34.1748 41.0312C34.1748 42.4479 34.5289 43.75 35.2373 44.9375C35.9664 46.1042 36.9143 47.1875 38.081 48.1875C38.2685 47.5417 38.4039 46.8854 38.4873 46.2188C38.5914 45.5521 38.6643 44.8646 38.706 44.1562C40.2477 44.8646 41.6123 45.3542 42.7998 45.625C43.9873 45.8958 45.0289 46.0312 45.9248 46.0312C47.2998 46.0312 48.6435 45.8125 49.956 45.375C51.2685 44.9167 52.4352 44.2604 53.456 43.4062C54.4977 42.5521 55.331 41.5208 55.956 40.3125C56.581 39.0833 56.8935 37.6979 56.8935 36.1562ZM68.206 58.4375H68.081C68.1227 58.4167 68.1539 58.4062 68.1748 58.4062L68.206 58.4375Z" fill="#F3F4F6"/>
</svg>




